<mxfile host="app.diagrams.net" agent="Mozilla/5.0 (Macintosh; Intel Mac OS X 10_15_7) AppleWebKit/537.36 (KHTML, like Gecko) Chrome/128.0.0.0 Safari/537.36 OPR/114.0.0.0" version="24.8.3">
  <diagram name="Page-1" id="zPjrnBL1A98AJDdyD1j9">
    <mxGraphModel dx="2262" dy="1835" grid="1" gridSize="10" guides="1" tooltips="1" connect="1" arrows="1" fold="1" page="1" pageScale="1" pageWidth="850" pageHeight="1100" background="none" math="0" shadow="0">
      <root>
        <mxCell id="0" />
        <mxCell id="1" parent="0" />
        <mxCell id="OG7J7UIpN3hxEkxC_2r7-2" value="" style="shape=image;verticalLabelPosition=bottom;labelBackgroundColor=default;verticalAlign=top;aspect=fixed;imageAspect=0;image=https://cdn-icons-png.flaticon.com/512/2111/2111615.png;sketch=1;curveFitting=1;jiggle=2;" vertex="1" parent="1">
          <mxGeometry x="-266.0058333333333" y="170" width="40.5" height="40.5" as="geometry" />
        </mxCell>
        <mxCell id="OG7J7UIpN3hxEkxC_2r7-3" value="" style="shape=image;verticalLabelPosition=bottom;labelBackgroundColor=default;verticalAlign=top;aspect=fixed;imageAspect=0;image=https://www.svgrepo.com/show/354219/prometheus.svg;sketch=1;curveFitting=1;jiggle=2;" vertex="1" parent="1">
          <mxGeometry x="-370" y="174.5" width="36" height="36" as="geometry" />
        </mxCell>
        <mxCell id="OG7J7UIpN3hxEkxC_2r7-4" value="" style="shape=image;verticalLabelPosition=bottom;labelBackgroundColor=default;verticalAlign=top;aspect=fixed;imageAspect=0;image=https://cdn.iconscout.com/icon/free/png-256/free-grafana-logo-icon-download-in-svg-png-gif-file-formats--technology-social-media-company-vol-3-pack-logos-icons-3030088.png;sketch=1;curveFitting=1;jiggle=2;" vertex="1" parent="1">
          <mxGeometry x="-318.32293000000004" y="172" width="41" height="41" as="geometry" />
        </mxCell>
        <mxCell id="OG7J7UIpN3hxEkxC_2r7-16" value="" style="group" vertex="1" connectable="0" parent="1">
          <mxGeometry x="-650" y="-400" width="100" height="40" as="geometry" />
        </mxCell>
        <mxCell id="OG7J7UIpN3hxEkxC_2r7-14" value="" style="shape=image;verticalLabelPosition=bottom;labelBackgroundColor=default;verticalAlign=top;aspect=fixed;imageAspect=0;image=https://www.iconpacks.net/icons/1/free-stack-icon-965-thumb.png;" vertex="1" parent="OG7J7UIpN3hxEkxC_2r7-16">
          <mxGeometry width="40" height="40" as="geometry" />
        </mxCell>
        <mxCell id="OG7J7UIpN3hxEkxC_2r7-15" value="monitoring" style="text;html=1;align=center;verticalAlign=middle;whiteSpace=wrap;rounded=0;fontSize=13;" vertex="1" parent="OG7J7UIpN3hxEkxC_2r7-16">
          <mxGeometry x="40" y="5" width="60" height="30" as="geometry" />
        </mxCell>
        <mxCell id="OG7J7UIpN3hxEkxC_2r7-17" value="" style="group" vertex="1" connectable="0" parent="1">
          <mxGeometry x="-650" y="-330" width="130" height="40" as="geometry" />
        </mxCell>
        <mxCell id="OG7J7UIpN3hxEkxC_2r7-18" value="" style="shape=image;verticalLabelPosition=bottom;labelBackgroundColor=default;verticalAlign=top;aspect=fixed;imageAspect=0;image=https://www.iconpacks.net/icons/1/free-stack-icon-965-thumb.png;" vertex="1" parent="OG7J7UIpN3hxEkxC_2r7-17">
          <mxGeometry width="40" height="40" as="geometry" />
        </mxCell>
        <mxCell id="OG7J7UIpN3hxEkxC_2r7-19" value="traefix" style="text;html=1;align=center;verticalAlign=middle;whiteSpace=wrap;rounded=0;fontSize=13;" vertex="1" parent="OG7J7UIpN3hxEkxC_2r7-17">
          <mxGeometry x="13" y="5" width="90" height="30" as="geometry" />
        </mxCell>
        <mxCell id="OG7J7UIpN3hxEkxC_2r7-30" style="edgeStyle=none;curved=1;rounded=0;orthogonalLoop=1;jettySize=auto;html=1;exitX=0;exitY=0.5;exitDx=0;exitDy=0;fontSize=12;startSize=8;endSize=8;" edge="1" parent="OG7J7UIpN3hxEkxC_2r7-17" source="OG7J7UIpN3hxEkxC_2r7-19" target="OG7J7UIpN3hxEkxC_2r7-19">
          <mxGeometry relative="1" as="geometry" />
        </mxCell>
        <mxCell id="OG7J7UIpN3hxEkxC_2r7-20" value="" style="group" vertex="1" connectable="0" parent="1">
          <mxGeometry x="-650" y="-260" width="130" height="40" as="geometry" />
        </mxCell>
        <mxCell id="OG7J7UIpN3hxEkxC_2r7-21" value="" style="shape=image;verticalLabelPosition=bottom;labelBackgroundColor=default;verticalAlign=top;aspect=fixed;imageAspect=0;image=https://www.iconpacks.net/icons/1/free-stack-icon-965-thumb.png;" vertex="1" parent="OG7J7UIpN3hxEkxC_2r7-20">
          <mxGeometry width="40" height="40" as="geometry" />
        </mxCell>
        <mxCell id="OG7J7UIpN3hxEkxC_2r7-22" value="infratructure" style="text;html=1;align=center;verticalAlign=middle;whiteSpace=wrap;rounded=0;fontSize=13;" vertex="1" parent="OG7J7UIpN3hxEkxC_2r7-20">
          <mxGeometry x="32" y="5" width="90" height="30" as="geometry" />
        </mxCell>
        <mxCell id="OG7J7UIpN3hxEkxC_2r7-23" value="" style="shape=image;verticalLabelPosition=bottom;labelBackgroundColor=default;verticalAlign=top;aspect=fixed;imageAspect=0;image=https://raw.githubusercontent.com/docker-library/docs/a6cc2c5f4bc6658168f2a0abbb0307acaefff80e/traefik/logo.png;" vertex="1" parent="1">
          <mxGeometry x="-490" y="-20" width="60" height="60" as="geometry" />
        </mxCell>
        <mxCell id="OG7J7UIpN3hxEkxC_2r7-25" value="" style="shape=image;verticalLabelPosition=bottom;labelBackgroundColor=default;verticalAlign=top;aspect=fixed;imageAspect=0;image=https://habrastorage.org/files/387/a02/5c6/387a025c6d7a45e6931da923105316df.png;sketch=1;curveFitting=1;jiggle=2;" vertex="1" parent="1">
          <mxGeometry x="-830" y="-1010" width="69.83" height="70" as="geometry" />
        </mxCell>
        <mxCell id="OG7J7UIpN3hxEkxC_2r7-27" value="" style="group" vertex="1" connectable="0" parent="1">
          <mxGeometry x="-850" y="-1100" width="196.5" height="74" as="geometry" />
        </mxCell>
        <mxCell id="OG7J7UIpN3hxEkxC_2r7-11" value="" style="group" vertex="1" connectable="0" parent="OG7J7UIpN3hxEkxC_2r7-27">
          <mxGeometry width="75" height="73" as="geometry" />
        </mxCell>
        <mxCell id="OG7J7UIpN3hxEkxC_2r7-1" value="" style="shape=image;verticalLabelPosition=bottom;labelBackgroundColor=default;verticalAlign=top;aspect=fixed;imageAspect=0;image=https://cdn-icons-png.flaticon.com/512/969/969438.png;" vertex="1" parent="OG7J7UIpN3hxEkxC_2r7-11">
          <mxGeometry x="11.5" y="23" width="50" height="50" as="geometry" />
        </mxCell>
        <mxCell id="OG7J7UIpN3hxEkxC_2r7-6" value="node-01" style="text;html=1;align=center;verticalAlign=middle;whiteSpace=wrap;rounded=0;fontSize=12;" vertex="1" parent="OG7J7UIpN3hxEkxC_2r7-11">
          <mxGeometry width="75" height="30" as="geometry" />
        </mxCell>
        <mxCell id="OG7J7UIpN3hxEkxC_2r7-12" value="" style="group" vertex="1" connectable="0" parent="OG7J7UIpN3hxEkxC_2r7-27">
          <mxGeometry x="61.5" width="75" height="74" as="geometry" />
        </mxCell>
        <mxCell id="OG7J7UIpN3hxEkxC_2r7-9" value="" style="shape=image;verticalLabelPosition=bottom;labelBackgroundColor=default;verticalAlign=top;aspect=fixed;imageAspect=0;image=https://cdn-icons-png.flaticon.com/512/969/969438.png;" vertex="1" parent="OG7J7UIpN3hxEkxC_2r7-12">
          <mxGeometry x="11.5" y="24" width="50" height="50" as="geometry" />
        </mxCell>
        <mxCell id="OG7J7UIpN3hxEkxC_2r7-10" value="node-02" style="text;html=1;align=center;verticalAlign=middle;whiteSpace=wrap;rounded=0;fontSize=12;" vertex="1" parent="OG7J7UIpN3hxEkxC_2r7-12">
          <mxGeometry width="75" height="30" as="geometry" />
        </mxCell>
        <mxCell id="OG7J7UIpN3hxEkxC_2r7-13" value="" style="group" vertex="1" connectable="0" parent="OG7J7UIpN3hxEkxC_2r7-27">
          <mxGeometry x="121.5" y="0.5" width="75" height="72" as="geometry" />
        </mxCell>
        <mxCell id="OG7J7UIpN3hxEkxC_2r7-7" value="" style="shape=image;verticalLabelPosition=bottom;labelBackgroundColor=default;verticalAlign=top;aspect=fixed;imageAspect=0;image=https://cdn-icons-png.flaticon.com/512/969/969438.png;" vertex="1" parent="OG7J7UIpN3hxEkxC_2r7-13">
          <mxGeometry x="11.5" y="22" width="50" height="50" as="geometry" />
        </mxCell>
        <mxCell id="OG7J7UIpN3hxEkxC_2r7-8" value="node-03" style="text;html=1;align=center;verticalAlign=middle;whiteSpace=wrap;rounded=0;fontSize=12;" vertex="1" parent="OG7J7UIpN3hxEkxC_2r7-13">
          <mxGeometry x="-3" y="-1" width="75" height="30" as="geometry" />
        </mxCell>
      </root>
    </mxGraphModel>
  </diagram>
</mxfile>
